<svg version="1.1" xmlns="http://www.w3.org/2000/svg" xmlns:xlink="http://www.w3.org/1999/xlink" x="0px" y="0px" viewBox="0 0 256 256" style="enable-background:new 0 0 256 256;" xml:space="preserve">
<g>
	<path d="M241.5,170.6H92.3c-2.3,0-4.3,1.1-5.7,2.8l-29.8,39.8v-35.5c0-4-3.1-7.1-7.1-7.1H14.2V28.5h227.3V170.6z M248.6,14.3H7.1
		c-4,0-7.1,3.1-7.1,7.1v156.3c0,4,3.1,7.1,7.1,7.1h35.5v49.7c0,3.1,2,5.7,4.8,6.8c2.8,0.9,6.2,0,8-2.6l40.6-54h152.9
		c4,0,7.1-3.1,7.1-7.1V21.4C255.7,17.5,252.6,14.3,248.6,14.3z"></path>
	<path d="M49.7,71.2H135c4,0,7.1-3.1,7.1-7.1S138.9,57,135,57H49.7c-4,0-7.1,3.1-7.1,7.1S45.7,71.2,49.7,71.2z"></path>
	<path d="M206,92.5h-71c-4,0-7.1,3.1-7.1,7.1c0,4,3.1,7.1,7.1,7.1h71c4,0,7.1-3.1,7.1-7.1C213.1,95.6,210,92.5,206,92.5z"></path>
	<path d="M49.7,106.7h56.8c4,0,7.1-3.1,7.1-7.1c0-4-3.1-7.1-7.1-7.1H49.7c-4,0-7.1,3.1-7.1,7.1C42.6,103.5,45.7,106.7,49.7,106.7z"></path>
	<path d="M149.2,128h-42.6c-4,0-7.1,3.1-7.1,7.1c0,4,3.1,7.1,7.1,7.1h42.6c4,0,7.1-3.1,7.1-7.1C156.3,131.1,153.1,128,149.2,128z"></path>
	<path d="M49.7,142.2h28.4c4,0,7.1-3.1,7.1-7.1c0-4-3.1-7.1-7.1-7.1H49.7c-4,0-7.1,3.1-7.1,7.1C42.6,139.1,45.7,142.2,49.7,142.2z"></path>
	<path d="M163.4,71.2H206c4,0,7.1-3.1,7.1-7.1S210,57,206,57h-42.6c-4,0-7.1,3.1-7.1,7.1S159.4,71.2,163.4,71.2z"></path>
</g>
</svg>