<svg version="1.1" xmlns="http://www.w3.org/2000/svg" xmlns:xlink="http://www.w3.org/1999/xlink" x="0px" y="0px" viewBox="0 0 256 256" style="enable-background:new 0 0 256 256;" xml:space="preserve">
<g>
	<path d="M165.1,255.9c-1.5,0-2.8-0.1-3.9-0.4l-0.1,0l-0.1,0c-0.7,0.1-1.4,0.2-2,0.2h-36.7c-22.7,0-46-14.3-62.2-38.2l-0.2-0.3h-38
		c-5,0-9.1-4.1-9.1-9.1l-0.2-97.4c0-2.4,0.9-4.7,2.6-6.4c1.7-1.7,4-2.6,6.4-2.6h42.6l0.2-0.1c10.1-7.4,30.5-23.1,43.5-35.3
		c11.4-10.7,20.3-16.1,26.2-19.7l1.1-0.7c3.6-2.3,6.3-4,8.1-6c14.1-15.3,12.2-29.5,12.2-29.6c-0.4-2.6,0.5-5.3,2.3-7.3
		c1.8-2,4.2-3,6.9-3c11,0.3,32.7,8.2,35.7,36c1.7,14.5-6.3,32.8-23.7,54.5l-0.7,0.9H208c12.5,0,22.2,12,22.2,27.3
		c0,3.8-0.6,7.5-1.8,10.8l-0.2,0.5l0.5,0.2c8.8,3.8,14.6,14.1,14.6,25.6c0,11.7-5.6,21.7-14.3,25.5l-0.5,0.2l0.2,0.5
		c1,3.1,1.6,6.6,1.6,10.2c0,11.6-6,21.9-14.8,25.7L215,218l0.2,0.5c1.1,3.2,1.6,6.5,1.6,10.2c0,15.3-9.8,27.3-22.2,27.3H165.1z
		 M165,216.2c-0.3,0-0.6,0-1,0.2l-0.1,0.1l-0.1,0.1c-0.2,0.4-0.7,0.8-1.2,1.3c-1.9,1.4-3.4,3.4-4.5,5.9c-0.4,1.5-0.7,3.2-0.7,4.9
		c0,7.3,4,12.7,7.6,12.7h29.4c1.3,0,2.6-0.6,3.8-1.9c2.3-2.4,3.7-6.5,3.7-10.7c0-7.3-4-12.7-7.6-12.7H165z M27.3,202.8h37.7
		c2.4,0,4.5,1.6,5.3,3.8l0,0.1l0,0.1c10.6,16.7,29.8,34.5,51.9,34.5h25.8l-0.3-0.8c-1.3-3.3-2-6.8-2-10.2c0-3.5,0.7-7.1,2-10.2
		c0.3-1.1,0.7-2.1,1.1-3.1l0.2-0.5l-0.4-0.3c-8.3-4.4-13.5-13.2-13.5-23.1c0-5.5,1.5-10.7,4.4-15.1l0.3-0.5l-0.4-0.3
		c-4.1-3-7.2-7.3-8.9-12.3l-0.3-0.8l-0.6,0.6c-7.4,6.8-17,11.1-28.4,12.7l-0.1,0l0,0c-0.2,0.1-0.4,0.1-0.7,0.1c-2.8,0-5.1-2-5.5-4.7
		c-0.5-3.1,1.6-5.8,4.6-6.3c12.3-1.8,33.4-9.5,36.5-40.9l0-0.1l0-0.1c-0.6-2.2-0.9-4.4-0.9-6.8c0-1.9,0.3-4.1,0.9-6.6l0-0.1l0-0.1
		c-0.2-1.6,0.3-3.2,1.4-4.3l0.1-0.1l0-0.1c3.5-7.5,10-12.8,17.4-14.1l0.2,0l0.1-0.1c20.6-22.5,32.1-43.4,30.7-55.7
		c-1.5-13.7-9.1-19.3-15.2-21.6l-0.7-0.3l-0.1,0.7c-0.8,8.3-4.2,20.9-15.9,33.4c-3.4,3.7-7.5,6.3-12.3,9.2l-0.7,0.4
		c-6,3.7-13.5,8.4-23.1,17.5c-16.1,15.1-42.3,34.6-47.4,38.3c-1,0.7-2.1,1.1-3.3,1.1H27.1L27.3,202.8z M156.4,179.6
		c-3.5,0.1-7.5,5.3-7.5,12.6c0,7.5,4,12.7,7.6,12.7h51.5c3.6,0,7.6-5.4,7.6-12.7c0-7.4-4-12.6-7.5-12.6L156.4,179.6L156.4,179.6z
		 M150.8,143c-3.6,0-7.6,5.4-7.6,12.7c0,7.3,4,12.7,7.6,12.7h70.4c3.6,0,7.6-5.4,7.6-12.7c0-7.3-4-12.7-7.6-12.7H150.8z
		 M156.5,105.8c-3.6,0-7.6,5.4-7.6,12.7c0,7.3,4,12.7,7.6,12.7h51.5c3.6,0,7.6-5.2,7.6-12.7c0-7.3-4-12.7-7.6-12.7H156.5z"></path>
</g>
</svg>