<svg version="1.1" xmlns="http://www.w3.org/2000/svg" xmlns:xlink="http://www.w3.org/1999/xlink" x="0px" y="0px" viewBox="0 0 256 256" style="enable-background:new 0 0 256 256;" xml:space="preserve">
<path d="M243.4,155.6c0-11.9-6.1-22.2-14.9-26c1.2-3.4,1.8-7.2,1.8-10.9c0-15.6-10-27.7-22.7-27.7H177
	c17.4-21.7,25.4-40.1,23.7-54.7c-3-28-24.9-36-36.1-36.3c-2.9,0-5.5,1.2-7.3,3.2c-1.9,2.1-2.8,5-2.4,7.7c0.1,0.6,1.6,14.3-12,29
	c-2,2.2-5,4-9.1,6.6c-6.4,3.9-15.1,9.3-26.2,19.7c-13.2,12.5-33.9,28.3-43.2,35.1H22.2c-2.6,0-5,1-6.8,2.8c-1.8,1.8-2.8,4.2-2.8,6.8
	l0.2,96.9c0,5.3,4.3,9.6,9.6,9.6h37.5c16.3,24,39.6,38.3,62.4,38.3h36.5c0.7,0,1.4-0.1,2.1-0.2c1.3,0.3,2.7,0.4,4,0.4h29.3
	c12.7,0,22.7-12.2,22.7-27.7c0-3.6-0.5-7-1.6-10.3c8.9-3.8,15.1-14.1,15.1-26.1c0-3.5-0.5-7-1.6-10.3
	C237.6,177.7,243.4,167.6,243.4,155.6z"></path>
</svg>