<svg version="1.1" xmlns="http://www.w3.org/2000/svg" xmlns:xlink="http://www.w3.org/1999/xlink" x="0px" y="0px" viewBox="0 0 256 256" style="enable-background:new 0 0 256 256;" xml:space="preserve">
<g>
	<path class="st0" d="M128,0C57.4,0,0,57.4,0,128s57.4,128,128,128c70.6,0,128-57.4,128-128S198.6,0,128,0z M128,242.9
		c-63.4,0-114.9-51.6-114.9-114.9S64.6,13.1,128,13.1c63.4,0,114.9,51.5,114.9,114.9S191.4,242.9,128,242.9z"></path>
	<path class="st0" d="M62.3,101.2c-14.8,0-26.8,12-26.8,26.8s12,26.8,26.8,26.8s26.8-12,26.8-26.8S77.1,101.2,62.3,101.2z M76,128
		c0,7.6-6.1,13.7-13.7,13.7s-13.7-6.1-13.7-13.7c0-7.6,6.1-13.7,13.7-13.7S76,120.4,76,128z"></path>
	<path class="st0" d="M128,101.2c-14.8,0-26.8,12-26.8,26.8s12,26.8,26.8,26.8c14.8,0,26.8-12,26.8-26.8S142.8,101.2,128,101.2z
		 M128,141.7c-7.6,0-13.7-6.1-13.7-13.7c0-7.6,6.1-13.7,13.7-13.7c7.6,0,13.7,6.1,13.7,13.7C141.7,135.6,135.6,141.7,128,141.7z"></path>
	<path class="st0" d="M193.7,101.2c-14.8,0-26.8,12-26.8,26.8s12,26.8,26.8,26.8c14.8,0,26.8-12,26.8-26.8S208.4,101.2,193.7,101.2z
		 M207.4,128c0,7.6-6.1,13.7-13.7,13.7c-7.6,0-13.7-6.1-13.7-13.7c0-7.6,6.1-13.7,13.7-13.7C201.2,114.3,207.4,120.4,207.4,128z"></path>
</g>
</svg>